<svg width="40" height="31" viewBox="0 0 40 31" fill="none" xmlns="http://www.w3.org/2000/svg">
<path d="M13.1738 0.211233C10.6926 0.759139 8.79837 1.36966 6.45802 2.36372C6.07449 2.52809 6.01187 2.59854 5.47179 3.45171C2.88881 7.53752 1.21378 11.7407 0.454539 16.0535C0.0631776 18.3 -0.00726746 19.2784 0.000559774 22.0492C0.008387 23.4659 0.0396959 24.8279 0.0788321 25.0627L0.14145 25.4854L1.15899 26.182C3.70284 27.9118 6.34844 29.2424 9.11928 30.1895C9.69067 30.3852 10.1994 30.5261 10.2464 30.5104C10.4421 30.4322 12.3911 27.3248 12.3911 27.0899C12.3911 27.0586 12.1876 26.9569 11.9449 26.863C11.3266 26.6203 9.32279 25.6262 9.18973 25.4932C9.05666 25.3601 9.08797 25.3132 9.51064 25.0079L9.84721 24.7653L10.6299 25.1018C14.7627 26.863 19.4825 27.4343 23.858 26.6986C25.8696 26.362 27.7011 25.8063 29.8536 24.8827C30.1276 24.7653 30.1354 24.7653 30.4798 25.0392C30.6676 25.1879 30.8242 25.3523 30.8242 25.3993C30.8242 25.5088 29.1883 26.3698 28.3195 26.7142C27.9751 26.8551 27.662 26.996 27.6229 27.0273C27.4663 27.1682 29.4936 30.5339 29.7362 30.5417C29.791 30.5417 30.245 30.4009 30.7537 30.2208C33.642 29.2268 36.2485 27.9196 38.808 26.182L39.8255 25.4854L39.8803 25.0627C39.9038 24.8279 39.9507 23.8182 39.982 22.8319C40.2012 15.9283 38.4166 9.63522 34.4873 3.44388L33.9081 2.53592L32.8358 2.08977C30.8555 1.26791 28.2725 0.485186 26.3705 0.13296L25.666 -0.000102624L25.533 0.187751C25.4547 0.281678 25.2042 0.766966 24.9772 1.26008L24.5624 2.14456L24.171 2.09759C23.9597 2.07411 23.4431 2.0115 23.0361 1.9567C22.0655 1.83147 17.9875 1.83147 16.97 1.9567C16.5395 2.00367 16.0151 2.06629 15.7959 2.09759L15.4045 2.13673L14.8958 1.09571C14.3009 -0.117511 14.4027 -0.0627205 13.1738 0.211233ZM14.7705 13.1183C15.7959 13.6193 16.5395 14.5977 16.8213 15.8031C16.9778 16.4606 16.9309 17.5485 16.7117 18.1826C15.8116 20.8751 12.8607 21.6892 10.943 19.7793C9.69067 18.527 9.38541 16.4997 10.1994 14.8325C10.6456 13.9324 11.3735 13.2749 12.305 12.954C12.7355 12.7974 12.9311 12.7739 13.5104 12.7974C14.1052 12.8287 14.2774 12.8679 14.7705 13.1183ZM28.0925 13.1262C29.4309 13.7836 30.2371 15.1534 30.2371 16.7658C30.2371 17.9399 29.8693 18.9105 29.1257 19.701C27.0906 21.8848 23.8032 20.7421 23.1457 17.6268C22.8013 15.9909 23.5136 14.1672 24.8364 13.3218C25.4782 12.907 26.0183 12.7661 26.8166 12.8052C27.4193 12.8287 27.5837 12.8679 28.0925 13.1262Z" fill="white"/>
</svg>
