<svg width="40" height="45" viewBox="0 0 40 45" fill="none" xmlns="http://www.w3.org/2000/svg">
<path d="M6.34612 0.0733125C6.16509 0.123599 6.05446 0.274457 5.91366 0.686804C5.17948 2.80888 5.08896 5.09188 5.65217 6.9927L5.86337 7.72687L5.49125 8.13922C4.55593 9.16506 3.69101 10.8245 3.23843 12.4236C2.97694 13.369 2.96689 13.4997 2.96689 15.7224C2.97694 17.4824 3.01717 18.2568 3.14792 18.9608C3.9525 23.2351 5.94383 26.0311 9.40352 27.7609C10.8216 28.475 13.0241 29.1086 14.8847 29.3499C15.4077 29.4103 15.9005 29.4907 15.9709 29.5109C16.0514 29.531 15.9307 29.7522 15.639 30.1042C15.0356 30.8485 14.7137 31.5022 14.4523 32.5481L14.231 33.4231L13.4767 33.6947C10.3388 34.801 7.72396 33.926 5.89354 31.1401C4.83753 29.531 3.46975 28.485 1.99133 28.1833C0.975552 27.9721 0 28.1732 0 28.5956C0 28.837 0.563205 29.4002 1.29738 29.9031C2.4942 30.7077 3.39935 31.8441 4.14358 33.4634C4.36484 33.936 4.63639 34.5294 4.75707 34.7808C4.87776 35.0222 5.36051 35.6156 5.8332 36.0983C6.79869 37.0739 7.61333 37.5365 9.00123 37.9187C9.65495 38.0897 10.0874 38.1299 11.3144 38.14C12.1491 38.14 13.1146 38.0796 13.4666 38.0092C13.8086 37.9388 14.1304 37.9087 14.1606 37.9388C14.1908 37.9791 14.2411 39.0753 14.2612 40.3928C14.3215 43.41 14.2511 43.6513 13.3057 43.9832C12.9839 44.1039 13.9192 44.114 19.6116 44.0737C27.1043 44.0235 29.9907 43.943 29.518 43.8223C29.1358 43.7217 28.7838 43.3999 28.7134 43.0982C28.6933 42.9775 28.6531 40.7046 28.633 38.0495C28.6028 33.4935 28.5927 33.1817 28.3916 32.4576C28.1301 31.5122 27.7077 30.6674 27.1747 29.9835L26.7623 29.4706L27.3859 29.4103C28.5324 29.2795 30.5137 28.837 31.6904 28.4448C36.8497 26.725 39.4143 23.1849 39.9373 17.0801C40.239 13.4997 39.4546 10.6334 37.5236 8.25991C37.0609 7.68665 37.0207 7.60619 37.1213 7.35476C37.7348 5.7456 37.6644 2.88934 36.9805 0.837663C36.6989 0.012969 36.5581 -0.0574316 35.4618 0.0833697C33.7622 0.314686 32.0323 1.00864 29.8197 2.34625L28.7134 3.02009L27.5267 2.7586C25.2135 2.24568 24.3788 2.15516 21.4722 2.15516C18.5657 2.1451 17.7007 2.23562 15.2769 2.76865L14.1204 3.02009L13.4063 2.56751C11.5558 1.36064 9.34318 0.405201 7.79436 0.133656C6.84898 -0.0272599 6.71824 -0.0373172 6.34612 0.0733125Z" fill="white"/>
</svg>
