<svg width="40" height="32" viewBox="0 0 40 32" fill="none" xmlns="http://www.w3.org/2000/svg">
<path d="M0.546875 0.367184C0.546875 0.742184 0.554688 0.749996 2.57812 3.17968C3.98438 4.88281 4.625 5.71093 4.67969 5.91406C4.73438 6.11718 4.76562 9.3125 4.76562 15.5469V24.8828L4.57812 25.2734C4.47656 25.4922 3.41406 26.8516 2.19531 28.3203C0.078125 30.8828 0 30.9844 0 31.3047V31.6406H5.9375H11.875V31.2812C11.875 30.9297 11.8438 30.8906 9.60938 28.1875C7.91406 26.1328 7.32031 25.3594 7.22656 25.0859C7.125 24.7656 7.10938 23.7656 7.125 16.8047L7.14844 8.89062L12.3594 20.25L17.5703 31.6016L18.1797 31.625L18.7891 31.6484L23.2344 20.375C25.6797 14.1719 27.7109 9.07031 27.75 9.02343C27.7812 8.98437 27.8047 13.0391 27.7969 18.2734L27.7734 27.6016L25.9922 29.3281L24.2109 31.0625L24.2344 31.3672L24.2578 31.6797L32.0938 31.7031L39.9219 31.7188V31.3828C39.9219 31.0469 39.9141 31.0391 38.2031 29.3359C37.0625 28.2031 36.4844 27.5781 36.4844 27.4687C36.4844 27.375 36.4844 22.0937 36.4844 15.7187C36.4844 6.50781 36.5 4.10156 36.5781 4C36.6328 3.92187 37.4297 3.14843 38.3438 2.27343L40 0.687496V0.343746V-3.78117e-06L34.4766 0.0156212L28.9453 0.0390587L25.0781 9.65625C22.9531 14.9453 21.1719 19.3516 21.1328 19.4453C21.0625 19.6016 20.4375 18.2812 16.5625 9.8125L12.0781 -3.78117e-06H6.3125H0.546875V0.367184Z" fill="white"/>
</svg>
