<svg width="293" height="70" viewBox="0 0 293 70" fill="none" xmlns="http://www.w3.org/2000/svg">
<rect y="13" width="18" height="18" rx="3" fill="#EEEFEB"/>
<rect x="25" y="13" width="18" height="18" rx="3" fill="#EEEFEB"/>
<rect y="38" width="18" height="18" rx="3" fill="#EEEFEB"/>
<rect x="25" y="38" width="18" height="18" rx="3" fill="#EE42DD"/>
<path d="M67.6662 56V13.8182H84.3082C87.4938 13.8182 90.2126 14.388 92.4645 15.5277C94.7301 16.6536 96.4534 18.2533 97.6342 20.3267C98.8288 22.3864 99.4261 24.8099 99.4261 27.5973C99.4261 30.3984 98.822 32.8082 97.6136 34.8267C96.4053 36.8314 94.6546 38.3693 92.3615 39.4403C90.0822 40.5114 87.3222 41.0469 84.0817 41.0469H72.9389V33.8793H82.6399C84.3426 33.8793 85.7569 33.6458 86.8828 33.179C88.0088 32.7121 88.8464 32.0118 89.3956 31.0781C89.9586 30.1444 90.2401 28.9841 90.2401 27.5973C90.2401 26.1967 89.9586 25.0159 89.3956 24.0547C88.8464 23.0935 88.0019 22.3658 86.8622 21.8714C85.7363 21.3634 84.3151 21.1094 82.5987 21.1094H76.5845V56H67.6662ZM90.446 36.804L100.93 56H91.0845L80.8274 36.804H90.446ZM108.939 56H99.3825L113.944 13.8182H125.437L139.978 56H130.422L119.855 23.4574H119.526L108.939 56ZM108.342 39.4197H130.916V46.3814H108.342V39.4197ZM140.995 56V13.8182H157.637C160.823 13.8182 163.542 14.388 165.794 15.5277C168.059 16.6536 169.783 18.2533 170.963 20.3267C172.158 22.3864 172.755 24.8099 172.755 27.5973C172.755 30.3984 172.151 32.8082 170.943 34.8267C169.735 36.8314 167.984 38.3693 165.691 39.4403C163.411 40.5114 160.651 41.0469 157.411 41.0469H146.268V33.8793H155.969C157.672 33.8793 159.086 33.6458 160.212 33.179C161.338 32.7121 162.176 32.0118 162.725 31.0781C163.288 30.1444 163.569 28.9841 163.569 27.5973C163.569 26.1967 163.288 25.0159 162.725 24.0547C162.176 23.0935 161.331 22.3658 160.191 21.8714C159.065 21.3634 157.644 21.1094 155.928 21.1094H149.914V56H140.995ZM163.775 36.804L174.259 56H164.414L154.157 36.804H163.775ZM174.998 56V13.8182H203.421V21.1712H183.916V31.2223H201.959V38.5753H183.916V48.647H203.504V56H174.998ZM206.452 56V13.8182H223.094C226.293 13.8182 229.019 14.4292 231.27 15.6513C233.522 16.8596 235.239 18.5417 236.42 20.6974C237.614 22.8395 238.212 25.3111 238.212 28.1122C238.212 30.9134 237.607 33.3849 236.399 35.527C235.191 37.669 233.44 39.3374 231.147 40.532C228.868 41.7266 226.108 42.3239 222.867 42.3239H212.26V35.1768H221.425C223.142 35.1768 224.556 34.8816 225.668 34.2912C226.794 33.687 227.632 32.8563 228.181 31.799C228.744 30.728 229.025 29.4991 229.025 28.1122C229.025 26.7116 228.744 25.4896 228.181 24.446C227.632 23.3887 226.794 22.5717 225.668 21.995C224.542 21.4046 223.114 21.1094 221.384 21.1094H215.37V56H206.452ZM248.863 13.8182V56H239.944V13.8182H248.863ZM289.358 28.5859H280.337C280.172 27.4188 279.836 26.3821 279.328 25.4759C278.82 24.5559 278.167 23.7732 277.371 23.1278C276.575 22.4825 275.655 21.9882 274.611 21.6449C273.581 21.3016 272.462 21.13 271.254 21.13C269.071 21.13 267.169 21.6723 265.549 22.7571C263.928 23.8281 262.672 25.3935 261.779 27.4531C260.887 29.4991 260.441 31.9844 260.441 34.9091C260.441 37.9162 260.887 40.4427 261.779 42.4886C262.686 44.5346 263.949 46.0793 265.569 47.1229C267.189 48.1664 269.064 48.6882 271.192 48.6882C272.387 48.6882 273.492 48.5303 274.508 48.2145C275.538 47.8987 276.451 47.4387 277.247 46.8345C278.044 46.2166 278.703 45.4683 279.225 44.5895C279.76 43.7107 280.131 42.7083 280.337 41.5824L289.358 41.6236C289.125 43.5597 288.541 45.4271 287.608 47.2259C286.688 49.0109 285.445 50.6106 283.88 52.0249C282.328 53.4254 280.474 54.5376 278.318 55.3615C276.176 56.1716 273.753 56.5767 271.048 56.5767C267.286 56.5767 263.921 55.7254 260.956 54.0227C258.003 52.3201 255.669 49.8554 253.953 46.6286C252.25 43.4018 251.399 39.4953 251.399 34.9091C251.399 30.3092 252.264 26.3958 253.994 23.169C255.724 19.9422 258.072 17.4844 261.038 15.7955C264.004 14.0928 267.34 13.2415 271.048 13.2415C273.492 13.2415 275.758 13.5848 277.845 14.2713C279.946 14.9579 281.806 15.9602 283.426 17.2784C285.047 18.5829 286.365 20.1825 287.381 22.0774C288.411 23.9723 289.07 26.1418 289.358 28.5859Z" fill="#EEEFEB"/>
</svg>
